<svg xmlns="http://www.w3.org/2000/svg" width="300.04" height="90.268" viewBox="0 0 2812 846">
  <defs>
    <style>
      .cls-1 {
        fill: #fff;
        fill-rule: evenodd;
      }
    </style>
  </defs>
  <path id="Preenchimento_de_Cor_1" data-name="Preenchimento de Cor 1" class="cls-1" d="M2270,0c10.11-.126,23.55-1.711,32,1,18.74,6.016,32.72,13.49,43,28l3,2v2c0.67,0.333,1.33.667,2,1v2h1v2h1v2h1v2h1c0.33,1.333.67,2.667,1,4h1c0.33,2,.67,4,1,6,3.76,9.691,5.67,25.52,2,37-0.33,2.666-.67,5.334-1,8h-1v3h-1c-0.33,1.333-.67,2.667-1,4h-1c-0.33,1.666-.67,3.334-1,5-0.67.333-1.33,0.667-2,1-0.33,1.333-.67,2.667-1,4-0.67.333-1.33,0.667-2,1v2l-3,2v2c-1.67,1.333-3.33,2.667-5,4-1.67,2-3.33,4-5,6h-2c-0.67,1-1.33,2-2,3h-2c-0.33.667-.67,1.333-1,2h-2c-0.33.667-.67,1.333-1,2l-4,1v1l-4,1v1c-1.67.333-3.33,0.667-5,1v1h-3v1l-8,1v1h-5v1c-4.52,1.3-26.6.054-30-1v-1h-5v-1h-3v-1l-6-1v-1l-6-2v-1l-4-1c-0.33-.667-0.67-1.333-1-2l-4-1c-0.67-1-1.33-2-2-3h-2q-3.495-4-7-8c-1.33-1-2.67-2-4-3v-2l-3-2v-2c-0.67-.333-1.33-0.667-2-1-0.33-1.333-.67-2.667-1-4-0.67-.333-1.33-0.667-2-1v-2h-1v-3h-1v-2h-1c-0.33-2-.67-4-1-6h-1V93h-1V88c-1.05-3.506-3.46-13.826-2-19h1V60h1V56h1V52h1V49h1V46h1V44h1V41h1V39c0.67-.333,1.33-0.667,2-1,0.33-1.333.67-2.667,1-4,0.67-.333,1.33-0.667,2-1V31l3-2V27c1.33-1,2.67-2,4-3q3.495-4,7-8h2c0.67-1,1.33-2,2-3h2c0.33-.667.67-1.333,1-2l4-1V9h2V8h2V7h2V6Q2260.005,3,2270,0ZM1888,752H1756V190h132v20h1c1.75-2.01,2.17-.827,4-2,0.33-.667.67-1.333,1-2h2v-1h2v-1h2v-1h2v-1h2v-1h2v-1h2v-1l4-1v-1h3v-1h2v-1c1.67-.333,3.33-0.667,5-1v-1q14.505-4,29-8l20-2v-1l32-1v1h13v1h8v1h6v1h5v1l12,2v1h3v1h3v1h3v1h3v1l6,1v1h2v1c1.67,0.333,3.33.667,5,1v1l6,2v1h2v1h2v1h2v1h2v1h2c0.33,0.667.67,1.333,1,2l6,2v1l3,1c0.33,0.667.67,1.333,1,2h2c0.33,0.667.67,1.333,1,2h2c0.67,1,1.33,2,2,3h2c0.33,0.667.67,1.333,1,2h2c0.67,1,1.33,2,2,3l3,1c1.67,2,3.33,4,5,6h2l9,10,6,5v2l6,5v2l3,2v2l3,2v2l3,2v2c0.67,0.333,1.33.667,2,1v2c0.67,0.333,1.33.667,2,1,0.33,1.333.67,2.667,1,4,0.67,0.333,1.33.667,2,1,0.33,1.333.67,2.667,1,4,0.67,0.333,1.33.667,2,1,0.67,2,1.33,4,2,6h1v2h1v2h1v2h1v2h1c0.67,2,1.33,4,2,6h1v3h1v2h1c0.33,1.666.67,3.334,1,5h1c0.33,2,.67,4,1,6h1v3h1v3h1c0.33,2.333.67,4.667,1,7h1v4h1v5h1v4h1v6h1v6h1q0.495,11,1,22c0.89,3.195,2.3,15.374,1,20h-1v14h-1v8h-1v6h-1v6h-1v4h-1v5h-1v4h-1c-0.33,2.333-.67,4.667-1,7h-1v3h-1v3h-1c-0.33,2-.67,4-1,6-14.95,34.583-34.16,65.289-63,86l-3,4-3,1c-0.33.667-.67,1.333-1,2h-2c-0.33.667-.67,1.333-1,2l-3,1v1h-2c-0.33.667-.67,1.333-1,2l-3,1v1l-4,1c-0.33.667-.67,1.333-1,2l-6,2c-0.33.667-.67,1.333-1,2h-2v1l-4,1v1h-3v1h-2v1l-4,1v1h-3v1h-2v1l-6,1v1h-3v1h-3v1h-3v1l-8,1c-15.75,5.231-53.5,9.58-73,4l-18-2-28-8v-1h-2v-1h-3v-1l-4-1v-1h-3v-1h-2v-1h-2v-1h-2v-1h-2v-1h-2v-1h-2c-0.33-.667-0.67-1.333-1-2h-2c-1.92-1.088-4-2.909-6-4V752ZM96,182h22c31.224,9.186,45.787,34.862,58,63l10,33c18.188,45.776,30.8,96.236,49,142v3h1v3h1v3h1v3h1v3c6.574,16.5,11.944,35.094,19,51v3h1l2,6h1l1,4,2,1v2l6,5,2,3,9,1v-1l5-1,1-2c2.447-2.271,3.345-3.72,8-4a15.682,15.682,0,0,1,1,6h-1q-0.5,3-1,6h-1v3h-1v3h-1v2h-1v3h-1l-2,6h-1v2h-1l-2,6-2,1-1,4-2,1v2l-3,2v2l-4,3v2l-9,8-5,6h-2l-4,5-3,1q-0.5,1-1,2h-2q-0.5,1-1,2l-3,1v1l-4,1q-0.5,1-1,2l-4,1v1l-6,2v1h-3v1h-2v1h-3c-8.332,3.322-27.4,8.67-39,5h-4v-1l-7-1v-1l-4-1v-1l-4-1q-0.5-1-1-2h-2q-0.5-1-1-2h-2l-3-4h-2l-3-4-2-1v-2l-6-5v-2l-2-1v-2l-3-2-1-4-2-1v-2h-1v-2h-1v-2h-1v-2h-1v-2h-1l-2-6h-1v-3h-1v-2h-1v-3h-1v-2h-1q-0.5-3-1-6h-1v-3h-1v-3h-1v-3h-1v-3h-1v-3h-1q-0.5-3-1-6h-1v-3h-1v-3h-1v-3h-1v-3h-1v-3c-17.835-44.779-30.181-94.195-48-139v-3H57v-3H56v-3H55v-3c-5.5-13.826-10.068-29.557-16-43v-3H38v-2H37l-3-9-2-1-1-4-10-9c-6.26-.064-10.392.478-14,3v1c-2.4,1.973-3.035,3.406-7,4-0.875-2.316-1.017-4.407-1-8H0l1-6H2v-3H3v-2H4l3-9H8v-2H9v-2h1v-2h1l1-4,2-1v-2l2-1v-2l2-1v-2l3-2v-2l5-4v-2l3-2,7-8h2l4-5h2l2-3,3-1,1-2h2l1-2,4-1,1-2,4-1v-1h2v-1l6-2v-1h3v-1h3v-1h3v-1h3v-1h4v-1C89.161,182.943,93.824,183.914,96,182ZM514,503q0.5,2.5,1,5h-1v3h-1q-1,4.5-2,9h-1v2h-1v3h-1l-2,6h-1v2h-1l-2,6-2,1-1,4h-1l-1,3-2,1v2l-3,2v2l-8,7-1,3c-0.965,1.2-4.651,2.664-6,4l-5,6h-2l-2,3h-2l-2,3h-2l-1,2h-2l-1,2h-2v1h-2v1h-2v1h-2v1h-2v1h-2v1l-4,1v1l-13,3c-7.678,2.59-21,5.993-31,3h-5v-1h-3v-1h-3v-1h-3v-1h-2v-1h-2v-1l-3-1-1-2h-2l-1-2h-2l-3-4-9-8v-2l-4-3v-2l-2-1-1-3h-1v-2l-2-1-2-6h-1v-2h-1v-2h-1l-2-6h-1q-0.5-2.5-1-5h-1v-2h-1q-0.5-3-1-6h-1v-2h-1q-0.5-3-1-6h-1v-3h-1v-3h-1v-3h-1v-3h-1v-3h-1q-0.5-3-1-6h-1q-1-4.5-2-9c-10.3-25.868-17.755-54.265-28-80q-0.5-3-1-6h-1v-3h-1v-3h-1v-3h-1v-3h-1v-3h-1v-3h-1q-1-4.5-2-9h-1v-3h-1v-3h-1v-3h-1v-3h-1v-3h-1v-3h-1q-0.5-3-1-6h-1q-1-4.5-2-9h-1v-2h-1v-3h-1v-3h-1v-3h-1v-3h-1v-3h-1v-3h-1v-3h-1v-3h-1v-3h-1v-3h-1q-0.5-3-1-6h-1v-2h-1v-3h-1v-3h-1v-3h-1v-3h-1q-0.5-2-1-4h-1l-3-9-2-1v-2l-3-2v-2l-4-3v-1c-1.676-1.153-2.258-.037-4-2-5.1-.056-8.9.05-12,2l-1,2h-2c-2.935,2.053-.443,3.166-6,4a15.682,15.682,0,0,1-1-6h1q0.5-3.5,1-7h1v-2h1v-3h1v-2h1v-3h1q1-3,2-6h1v-2h1v-2h1q1-3,2-6l2-1v-2h1q0.5-1.5,1-3l2-1v-2l4-3v-2l10-9,7-8h2l3-4h2l2-3h2l1-2,3-1v-1l6-2,1-2h2v-1h2v-1h3v-1l4-1v-1l6-1v-1l17-3c3.265-.981,17.323-2.383,22-1v1h4v1l6,1v1l6,2v1h2v1l3,1,1,2h2l8,9,5,4v2l4,3v2l2,1v2l2,1,1,4,2,1,2,6h1l2,6h1v3h1v2h1v3h1v2h1q0.5,3,1,6h1v2h1q0.5,3,1,6h1v3h1v3h1v3h1v3h1v3h1v3h1q0.5,3,1,6h1q0.5,3,1,6l47,137v3h1v3h1v3h1v3h1v2h1v3h1v3h1v3h1v3h1v3h1v3h1v3h1v3h1v3h1q0.5,3,1,6h1v2h1q1,4.5,2,9h1v2h1v3h1v2h1v2h1v2h1v2h1v2l2,1v2l2,1v2l4,3,1,2h2v1h2v1c3.225,1.127,11.436-1.952,13-3l4-5h4ZM869,205c-0.915,3.6-3.888,5.479-6,8h-1v2l-5,4q-0.5,1.5-1,3l-5,4q-0.5,1.5-1,3l-2,1v2l-3,2v2l-2,1v2l-3,2v2l-2,1q-0.5,2-1,4l-2,1q-0.5,1.5-1,3h-1q-1,3-2,6l-2,1v2h-1v2h-1v2h-1v2h-1v2h-1v2h-1v2h-1v2h-1q-1,3-2,6h-1v3h-1q-0.5,2-1,4h-1q-2.5,8-5,16c-4.485-.516-7.513-2.652-11-4h-3v-1h-5v-1h-5v-1h-9c-11.635-.011-20.75.22-29,3h-4v1l-6,1v1h-2v1h-3v1l-4,1v1h-2q-0.5,1-1,2l-4,1q-0.5,1-1,2h-2l-2,3c-12.674,9-21.515,21.9-28,37v3h-1v3h-1v4h-1v4h-1v5h-1v8c-3.328,11.913-.087,30.846,3,40v4h1v3h1v3h1v3h1v3h1q0.5,2,1,4h1v2h1v2h1v2h1v2l2,1q0.5,2,1,4l3,2v2l3,2v2l6,5,3,4h2l3,4h2q0.5,1,1,2l4,1q0.5,1,1,2h2v1h2v1h3v1h2v1h3v1c4.287,1.679,24.129,4.938,31,3v-1h7v-1h5v-1l7-1v-1h2v-1h3v-1l6-2v-1l4-1q0.5-1,1-2h2l2-3h2l5-6,8-7v-2l3-2v-2l2-1q1-3,2-6l2-1v-2h1v-2h1v-3h1q0.5-2,1-4h1v-3h1v-3h1v-3h1q0.5-3.5,1-7h1v-5h1v-5h1v-7h1V383h1V365h1v-8h1v-7h1v-6l9-32h1q0.5-2.5,1-5h1v-2h1v-3h1q1-3,2-6h1v-2h1v-2h1v-2h1v-2h1v-2h1v-2l2-1q0.5-2,1-4l2-1v-2h1v-2l2-1v-2l2-1v-2l3-2v-2l3-2v-2l4-3v-2l8-7v-2l6-5q0.5-1,1-2h2l7-8h2l3-4h2l2-3h2l2-3h2q0.5-1,1-2l3-1v-1l4-1q0.5-1,1-2l3-1v-1h2v-1h2v-1h2v-1h2v-1h2q0.5-1,1-2l5-1v-1h2v-1l6-2v-1h3v-1h2v-1l6-1v-1h2v-1l6-1v-1h4v-1h3v-1h4v-1h4v-1h4v-1h5v-1h5v-1h6v-1h7v-1h10c7.39-2.057,35.62-2.076,43,0h10q17.505,3.5,35,7v1h3v1h3v1h3v1h3v1h3v1l6,1v1l4,1v1h3v1l6,2v1h2v1h2v1h2v1h2v1h2v1h2v1h2c0.33,0.667.67,1.333,1,2l4,1v1l3,1c0.33,0.667.67,1.333,1,2h2v1l3,1c0.33,0.667.67,1.333,1,2h2c0.67,1,1.33,2,2,3h2c0.67,1,1.33,2,2,3h2c1.33,1.667,2.67,3.333,4,5h2q6.495,7,13,14,3.495,3,7,6v2c1.67,1.333,3.33,2.667,5,4v2l3,2v2l3,2v2c0.67,0.333,1.33.667,2,1v2c0.67,0.333,1.33.667,2,1,0.33,1,.67,2,1,3h1c0.33,1.333.67,2.667,1,4,0.67,0.333,1.33.667,2,1,0.67,2,1.33,4,2,6,0.67,0.333,1.33.667,2,1,0.33,1.333.67,2.667,1,4h1c0.67,2,1.33,4,2,6h1v3h1c0.33,1.333.67,2.667,1,4h1v3h1v2h1c0.33,2,.67,4,1,6h1v3h1v3h1v3h1v4c9.19,26.069,12,76.83,3,106-0.33,3-.67,6-1,9q-5.505,16-11,32h-1c-0.67,2-1.33,4-2,6h-1v2h-1v2h-1v2h-1v2h-1v2h-1v2h-1v2c-0.67.333-1.33,0.667-2,1-0.33,1.333-.67,2.667-1,4h-1c-0.33,1-.67,2-1,3-0.67.333-1.33,0.667-2,1v2c-0.67.333-1.33,0.667-2,1v2l-3,2v2c-0.67.333-1.33,0.667-2,1v2l-3,2c-0.33,1-.67,2-1,3l-6,5v2q-4.995,4.5-10,9c-1.67,2-3.33,4-5,6h-2c-1.67,2-3.33,4-5,6h-2c-0.67,1-1.33,2-2,3h-2c-0.67,1-1.33,2-2,3h-2c-0.67,1-1.33,2-2,3h-2c-0.33.667-.67,1.333-1,2h-2c-0.33.667-.67,1.333-1,2l-4,1c-0.33.667-.67,1.333-1,2l-4,1c-0.33.667-.67,1.333-1,2h-2v1h-2v1h-2v1h-2v1h-2v1h-2v1l-6,2v1h-3v1l-4,1v1l-6,1v1h-2v1c-3.33.667-6.67,1.333-10,2v1h-3v1l-7,1v1l-9,1v1h-5v1h-6v1h-7v1l-42,1a189.387,189.387,0,0,1-75-16h-3v-1h-2v-1h-3v-1l-6-2v-1h-2v-1h-2v-1h-2v-1l-6-2q-0.5-1-1-2l-4-1v-1l-3-1q-0.5-1-1-2l-4-1-2-3h-2q-0.5-1-1-2h-2l-2-3h-2q-0.5-1-1-2a18.241,18.241,0,0,0-7-4l-3,4h-2l-3,4h-2l-2,3h-2l-2,3h-2q-0.5,1-1,2l-3,1v1l-4,1q-0.5,1-1,2l-4,1q-0.5,1-1,2h-2v1h-2v1h-2v1h-2v1l-6,2v1l-5,1v1h-2v1l-6,1v1h-2v1l-9,2v1h-4v1h-3v1h-4v1h-4v1h-4v1h-5v1h-6v1h-6v1h-8v1H792c-10.07,2.814-39.99,1.547-49-1h-8c-6.415-1.845-14.8-2.969-21-5h-4l-27-9v-1l-4-1v-1h-3v-1l-6-2v-1h-2v-1h-2v-1h-2v-1h-2v-1h-2q-0.5-1-1-2l-6-2v-1l-3-1q-0.5-1-1-2h-2v-1l-3-1q-0.5-1-1-2h-2l-2-3h-2q-0.5-1-1-2l-3-1-3-4h-2l-7-8h-2l-4-5-2-1v-2l-9-8q-0.5-1.5-1-3l-3-2v-2l-3-2q-0.5-1.5-1-3l-2-1v-2l-2-1q-0.5-1.5-1-3h-1v-2l-2-1q-0.5-2-1-4l-2-1v-2h-1v-2h-1v-2h-1v-2h-1v-2h-1v-2h-1v-2h-1v-2h-1q-1-3-2-6h-1v-3h-1v-2h-1v-3h-1v-2h-1v-3h-1v-3h-1v-3h-1v-3h-1v-4h-1v-3h-1v-4h-1v-5h-1v-5h-1v-5h-1v-7h-1v-9h-1V380a180.209,180.209,0,0,1,21-84v-2h1v-2h1v-2h1v-2h1v-2l2-1q0.5-2,1-4l2-1v-2l2-1v-2l2-1v-2h1q0.5-1.5,1-3l2-1v-2l4-3v-2l4-3v-2l11-10,11-12h2l3-4h2l2-3h2l2-3h2q0.5-1,1-2h2q0.5-1,1-2h2q0.5-1,1-2h2q0.5-1,1-2l4-1q0.5-1,1-2h2v-1h2v-1h2v-1h2v-1h2v-1h2v-1h2v-1l6-2v-1h3v-1h2v-1l5-1v-1l6-1v-1h3v-1h3v-1h3v-1h3v-1l12-2v-1l9-1v-1h6v-1h7v-1h9v-1h15v-1c5.167-1.439,15.361-.02,19,1l24,1v1h6v1h6v1h5v1h4v1h5v1h3v1h4Zm622-21h47v1h9v1h7v1h6v1h5v1l9,1v1h4v1l7,1v1h3v1h3v1l6,1v1h2v1h3v1h2v1h3v1l4,1v1h2v1l9,3c0.33,0.667.67,1.333,1,2h2v1h2v1h2v1h2c0.33,0.667.67,1.333,1,2l4,1c0.33,0.667.67,1.333,1,2h2v1l3,1c0.33,0.667.67,1.333,1,2h2c0.67,1,1.33,2,2,3h2c0.67,1,1.33,2,2,3h2c1.33,1.667,2.67,3.333,4,5l3,1q3.495,4,7,8h2v1l3,2v2l9,8v2c1.33,1,2.67,2,4,3v2c0.67,0.333,1.33.667,2,1v1c0.67,0.333,1.33.667,2,1v2c0.67,0.333,1.33.667,2,1,0.33,1,.67,2,1,3h1v2c0.67,0.333,1.33.667,2,1v2c0.67,0.333,1.33.667,2,1v2c0.67,0.333,1.33.667,2,1,0.67,2,1.33,4,2,6,0.67,0.333,1.33.667,2,1,0.33,1.333.67,2.667,1,4h1v2h1c0.67,2,1.33,4,2,6h1v3h1c0.33,1.333.67,2.667,1,4h1v3c9.87,22.569,15,47.164,15,80,0,10.4.28,21.019-2,29v7h-1v6h-1v5h-1v4h-1v5l-9,27h-1v2h-1v3h-1c-0.67,2-1.33,4-2,6h-1v2h-1v2h-1v2h-1v2h-1v2h-1v2c-0.67.333-1.33,0.667-2,1-0.33,1.333-.67,2.667-1,4-0.67.333-1.33,0.667-2,1-0.33,1.333-.67,2.667-1,4h-1c-0.33,1-.67,2-1,3-0.67.333-1.33,0.667-2,1v2l-3,2v2l-3,2v2c-1.33,1-2.67,2-4,3v2l-6,5v2l-9,8c-1.33,1.667-2.67,3.333-4,5h-2c-1.67,2-3.33,4-5,6h-2l-3,4h-2c-0.67,1-1.33,2-2,3h-2c-0.33.667-.67,1.333-1,2h-2c-0.33.667-.67,1.333-1,2h-2c-0.33.667-.67,1.333-1,2h-2c-0.33.667-.67,1.333-1,2h-2c-0.33.667-.67,1.333-1,2l-6,2c-0.33.667-.67,1.333-1,2l-6,2v1h-2v1l-6,2v1c-1.67.333-3.33,0.667-5,1v1h-2v1h-3v1h-2v1l-6,1v1h-3v1h-3v1h-3v1h-3v1l-12,2v1h-5v1h-5v1h-6v1h-7v1l-32,1c-30,0-54.63-4.569-76-13l-6-1v-1c-1.67-.333-3.33-0.667-5-1v-1h-2v-1h-3v-1l-6-2v-1h-2v-1h-2v-1h-2v-1h-2v-1h-2v-1h-2c-0.33-.667-0.67-1.333-1-2l-4-1c-0.33-.667-0.67-1.333-1-2l-4-1v-1l-3-1c-0.33-.667-0.67-1.333-1-2h-2c-0.67-1-1.33-2-2-3h-2c-0.67-1-1.33-2-2-3h-2c-0.67-1-1.33-2-2-3h-2c-1.67-2-3.33-4-5-6h-2q-4.995-5.5-10-11l-6-5v-2c-1.67-1.333-3.33-2.667-5-4v-2c-1.33-1-2.67-2-4-3-0.33-1-.67-2-1-3-0.67-.333-1.33-0.667-2-1v-2c-0.67-.333-1.33-0.667-2-1-0.33-1-.67-2-1-3h-1v-2c-0.67-.333-1.33-0.667-2-1-0.33-1-.67-2-1-3h-1c-0.33-1.333-.67-2.667-1-4-0.67-.333-1.33-0.667-2-1v-2h-1v-2h-1v-2h-1v-2c-0.67-.333-1.33-0.667-2-1v-2h-1v-2h-1v-3h-1v-2h-1c-0.33-1.333-.67-2.667-1-4h-1v-3h-1v-2h-1v-3h-1v-2h-1v-3h-1v-3h-1v-3h-1v-3h-1q-1.005-6-2-12c-3.7-11.092-5.98-25.519-6-40q-0.495-8-1-16h1V375q1.005-12,2-24h1v-6h1c0.33-3,.67-6,1-9h1v-4q4.005-12,8-24h1v-2h1v-3h1c0.67-2,1.33-4,2-6h1v-2h1v-2h1v-2h1v-2h1v-2h1v-2h1v-2c0.67-.333,1.33-0.667,2-1,0.33-1.333.67-2.667,1-4h1c0.33-1,.67-2,1-3,0.67-.333,1.33-0.667,2-1v-2c0.67-.333,1.33-0.667,2-1v-2c0.67-.333,1.33-0.667,2-1,0.33-1,.67-2,1-3l3-2v-2l3-2c0.33-1,.67-2,1-3q3.495-3,7-6v-2l3-2q3.495-4,7-8h2c1.67-2,3.33-4,5-6h2l3-4,3-1c0.33-.667.67-1.333,1-2h2c0.67-1,1.33-2,2-3h2c0.33-.667.67-1.333,1-2l3-1v-1h2c0.33-.667.67-1.333,1-2l4-1c0.33-.667.67-1.333,1-2l6-2c0.33-.667.67-1.333,1-2l4-1v-1l6-2v-1h3v-1h2v-1l4-1v-1l6-1v-1h2v-1l6-1v-1h3v-1h3v-1l7-1v-1l8-1v-1l10-1v-1h6v-1h7v-1C1485.3,184.054,1488.9,185.845,1491,184ZM2507,666c0.12,7.964,2.72,14.327,5,20v3h1v2h1v3h1v2h1v2c0.67,0.333,1.33.667,2,1,0.33,1.333.67,2.667,1,4,0.67,0.333,1.33.667,2,1v2c1.67,1.333,3.33,2.667,5,4q3.495,4,7,8h2c0.33,0.667.67,1.333,1,2l3,1v1l9,3v1h2v1l6,1v1h4v1h5v1h6v1h11c9.54,2.636,24.28.539,32-2h4v-1l6-1v-1h2v-1l9-3c0.33-.667.67-1.333,1-2l4-1v-1l3-1c0.33-.667.67-1.333,1-2h2c0.67-1,1.33-2,2-3h2q3.495-4,7-8l6-5v-2l3-2v-2l3-2v-2h1v-2c0.67-.333,1.33-0.667,2-1v-2h1v-2h1v-2h1v-2c6.47-12.191,12.84-34.952,7-53-0.33-2.333-.67-4.667-1-7h-1v-2h-1c-0.67-2-1.33-4-2-6l-3-2v-2c-0.67-.333-1.33-0.667-2-1v-1h-2c-0.67-1-1.33-2-2-3h-2v-1l-6-2v-1h-3v-1h-4c-9.58-3.1-30.07-2.779-40,0h-10v1c-4.92,1.374-25.39.013-29-1h-11v-1h-8v-1h-6v-1h-5v-1h-5l-28-8v-1h-2v-1h-3v-1h-2v-1h-3v-1l-4-1v-1h-2v-1l-9-3c-0.33-.667-0.67-1.333-1-2h-2v-1h-2v-1h-2v-1h-2c-0.33-.667-0.67-1.333-1-2l-4-1c-0.33-.667-0.67-1.333-1-2h-2v-1l-3-1c-0.33-.667-0.67-1.333-1-2h-2c-0.67-1-1.33-2-2-3h-2c-0.67-1-1.33-2-2-3h-2l-3-4h-2c-1.67-2-3.33-4-5-6h-1c-0.33-.667-0.67-1.333-1-2h-2l-6-7c-0.67-.333-1.33-0.667-2-1v-2q-3.495-3-7-6v-2c-1.67-1.333-3.33-2.667-5-4v-2l-3-2v-2c-0.67-.333-1.33-0.667-2-1v-2c-0.67-.333-1.33-0.667-2-1v-2c-0.67-.333-1.33-0.667-2-1v-2c-0.67-.333-1.33-0.667-2-1v-2c-0.67-.333-1.33-0.667-2-1-0.67-2-1.33-4-2-6-0.67-.333-1.33-0.667-2-1-0.67-2-1.33-4-2-6h-1v-2h-1c-0.67-2-1.33-4-2-6h-1c-0.33-1.667-.67-3.333-1-5h-1v-2h-1v-3h-1v-2h-1c-0.33-2-.67-4-1-6h-1v-3h-1v-3h-1v-3h-1c-0.33-2.666-.67-5.334-1-8h-1c-0.33-2.666-.67-5.334-1-8h-1v-5h-1v-6h-1v-7h-1V409c-1.62-5.811-1-15.558-1-23,0-19.805,2.02-37.234,7-52v-4h1v-3h1v-4h1c0.33-2,.67-4,1-6h1v-2h1v-3h1v-2h1v-3h1v-2h1v-3h1c0.67-2,1.33-4,2-6h1v-2h1v-2h1v-2h1v-2h1v-2c0.67-.333,1.33-0.667,2-1,0.33-1.333.67-2.667,1-4,0.67-.333,1.33-0.667,2-1,0.33-1.333.67-2.667,1-4,0.67-.333,1.33-0.667,2-1v-2l3-2v-2c0.67-.333,1.33-0.667,2-1v-2l3-2v-2c1.33-1,2.67-2,4-3v-2q3.495-3,7-6v-2q3.495-3,7-6c0.67-1,1.33-2,2-3h2l6-7h2l3-4h2c0.67-1,1.33-2,2-3h2c0.67-1,1.33-2,2-3h2c0.33-.667.67-1.333,1-2l3-1v-1h2c0.33-.667.67-1.333,1-2l3-1v-1l6-2c0.33-.667.67-1.333,1-2h2v-1h2v-1h2v-1h2v-1l6-2v-1c1.67-.333,3.33-0.667,5-1v-1h2v-1h3v-1h2v-1l18-5v-1l12-2v-1h4v-1h5v-1h6v-1h7v-1h9v-1h15c3.63-1.01,13.84-2.451,19-1v1h10l21,2v1h6v1h5v1h4v1h5v1l7,1v1h3v1c3.33,0.667,6.67,1.333,10,2v1h2v1h3v1h2v1h3v1h2v1h3v1l6,2v1h2v1h2v1h2v1l6,2c0.33,0.667.67,1.333,1,2l4,1c0.33,0.667.67,1.333,1,2l4,1v1l3,1c0.33,0.667.67,1.333,1,2h2c0.67,1,1.33,2,2,3h2c0.33,0.667.67,1.333,1,2l3,1,3,4h2c1.33,1.667,2.67,3.333,4,5h2l9,10c1.67,1.333,3.33,2.667,5,4v2l6,5c0.33,1,.67,2,1,3l3,2v2l3,2v2c0.67,0.333,1.33.667,2,1v2c0.67,0.333,1.33.667,2,1v2c0.67,0.333,1.33.667,2,1v2c0.67,0.333,1.33.667,2,1,0.33,1.333.67,2.667,1,4,0.67,0.333,1.33.667,2,1v2h1v2h1v2h1v2h1v2h1v2h1v2h1v2h1c0.67,2,1.33,4,2,6h1q5.505,17.5,11,35c0.33,3.666.67,7.334,1,11h1v6h1v9h1v17c0.48,1.717,1.9,6.763,1,10h-1v10a64.168,64.168,0,0,1-2,17q-1.005,8.5-2,17h-1v4h-1v4h-1v4h-1v3h-1q-1.005,5-2,10h-1v2h-1c-0.33,2-.67,4-1,6h-1v2h-1l-3,9h-1c-0.33,1.333-.67,2.667-1,4h-1v2h-1v2h-1v2h-1v2h-1c-0.33,1.333-.67,2.667-1,4-0.67.333-1.33,0.667-2,1-0.33,1.333-.67,2.667-1,4-0.67.333-1.33,0.667-2,1-0.33,1-.67,2-1,3h-1c-0.69,2.675,2.27,2.917,3,4v2c0.67,0.333,1.33.667,2,1,0.33,1,.67,2,1,3h1v2c0.67,0.333,1.33.667,2,1,0.33,1,.67,2,1,3h1c0.33,1.333.67,2.667,1,4,0.67,0.333,1.33.667,2,1v2h1v2h1v2h1v2h1v2h1v2h1c0.67,2,1.33,4,2,6h1v3h1v2h1v3h1v2h1c0.33,2,.67,4,1,6h1v3h1v3h1v3h1v3h1l3,17h1v5h1v6h1v8h1v12h1c1.3,4.661-.06,22.662-1,26v11h-1q-1.005,10-2,20-4.995,17-10,34h-1c-0.33,1.667-.67,3.333-1,5h-1c-0.33,1.333-.67,2.667-1,4h-1v2h-1v3h-1c-0.33,1.333-.67,2.667-1,4h-1c-0.33,1.333-.67,2.667-1,4-0.67.333-1.33,0.667-2,1v2h-1v2h-1v2h-1v2h-1c-0.33,1-.67,2-1,3-0.67.333-1.33,0.667-2,1v2c-0.67.333-1.33,0.667-2,1v2h-1c-0.33,1-.67,2-1,3-0.67.333-1.33,0.667-2,1v2l-3,2v2l-3,2v2c-1.33,1-2.67,2-4,3v2q-6.495,6-13,12-5.505,6-11,12h-2l-3,4h-2c-0.67,1-1.33,2-2,3l-3,1c-0.33.667-.67,1.333-1,2h-2c-0.33.667-.67,1.333-1,2h-2c-0.67,1-1.33,2-2,3l-4,1c-0.33.667-.67,1.333-1,2l-3,1v1l-6,2c-0.33.667-.67,1.333-1,2l-6,2v1h-2v1h-2v1l-6,2v1h-3v1h-2v1c-1.67.333-3.33,0.667-5,1v1h-3v1h-2v1l-28,8-10,1c-12.86,3.878-31.19,3-48,3-10.66,0-21.91.356-30-2l-17-2v-1l-8-1v-1h-4v-1l-7-1v-1h-3v-1h-3v-1l-6-1v-1h-2v-1h-3v-1h-2v-1h-3v-1l-6-2v-1h-2v-1h-2v-1h-2v-1h-2v-1h-2v-1h-2v-1h-2c-0.33-.667-0.67-1.333-1-2l-4-1c-0.33-.667-0.67-1.333-1-2l-4-1c-0.33-.667-0.67-1.333-1-2h-2c-0.33-.667-0.67-1.333-1-2h-2c-0.67-1-1.33-2-2-3h-2c-0.67-1-1.33-2-2-3h-2c-0.33-.667-0.67-1.333-1-2l-3-1c-1.67-2-3.33-4-5-6h-2c-1.67-2-3.33-4-5-6q-4.995-4.5-10-9v-2l-6-5v-2l-3-2c-0.33-1-.67-2-1-3-0.67-.333-1.33-0.667-2-1v-2c-0.67-.333-1.33-0.667-2-1v-2l-3-2c-0.33-1.333-.67-2.667-1-4-0.67-.333-1.33-0.667-2-1-0.33-1.333-.67-2.667-1-4-0.67-.333-1.33-0.667-2-1v-2h-1v-2h-1v-2h-1v-2h-1v-2h-1v-2h-1v-2h-1c-0.67-2-1.33-4-2-6h-1v-3h-1v-2h-1v-3h-1v-2h-1c-0.33-2-.67-4-1-6h-1v-3h-1c-0.33-2.333-.67-4.667-1-7h-1v-4h-1v-4h-1c-0.33-3.666-.67-7.334-1-11h-1v-6h-1c-0.97-3.39-.11-7.591-1-10h127ZM2218,209h132V601H2218V209Zm-261,80v1h-8v1h-5v1h-4v1h-4l-21,9c-0.33.667-.67,1.333-1,2h-2v1l-3,1c-0.33.667-.67,1.333-1,2h-2c-0.67,1-1.33,2-2,3h-2c-1.67,2-3.33,4-5,6l-9,8V447h1c0.33,1,.67,2,1,3l6,5c0.33,0.667.67,1.333,1,2h2c1.33,1.667,2.67,3.333,4,5h2c0.67,1,1.33,2,2,3h2c0.33,0.667.67,1.333,1,2l3,1v1l4,1v1h2v1l6,2v1h3v1h2v1l7,1v1h4v1h4v1h7c10.36,2.937,26.58,2.07,36-1l14-3v-1l6-2v-1h2v-1l6-2c0.33-.667.67-1.333,1-2h2c0.33-.667.67-1.333,1-2h2c0.67-1,1.33-2,2-3h2q4.005-4.5,8-9c1.67-1.333,3.33-2.667,5-4v-2l3-2v-2c0.67-.333,1.33-0.667,2-1v-2c0.67-.333,1.33-0.667,2-1,0.67-2,1.33-4,2-6h1v-2h1c0.67-2,1.33-4,2-6h1v-3h1v-2h1v-3h1c0.33-2.666.67-5.334,1-8h1v-5c5.03-16.7,1.07-40.142-4-53-0.33-2-.67-4-1-6h-1c-0.33-1.333-.67-2.667-1-4h-1v-2h-1v-2h-1v-2h-1v-2h-1v-2c-0.67-.333-1.33-0.667-2-1v-2c-0.67-.333-1.33-0.667-2-1v-2c-1.33-1-2.67-2-4-3-11.53-16.029-27.08-25.393-48-32h-5C1977.56,288.771,1967.04,288.967,1957,289Zm-908,8v1h-6q-9.495,3-19,6v1h-2v1h-2v1h-2v1h-2c-0.33.667-.67,1.333-1,2h-2c-0.33.667-.67,1.333-1,2h-2c-0.33.667-.67,1.333-1,2h-2c-1.33,1.666-2.67,3.334-4,5h-2l-3,4h-1v2l-5,4v2l-3,2v2l-2,1q-0.5,2-1,4l-2,1v2h-1q-0.5,2-1,4h-1v3h-1v2h-1q-2.5,9-5,18v7c-2.29,8.146-1.139,22.935,1,30v5h1v4h1v4h1v3h1q0.5,2.5,1,5h1v2h1v3h1v2h1v2l2,1q0.5,2,1,4h1q0.5,1.5,1,3l2,1v2l3,2v2l7,6c1.33,1.667,2.67,3.333,4,5h2l3,4h2c0.33,0.667.67,1.333,1,2l4,1c0.33,0.667.67,1.333,1,2h2v1l4,1v1h3c10,4.367,19.06,7,34,7h12v-1h6v-1h4v-1h4v-1h3v-1h3v-1h2v-1h3v-1h2v-1h2c0.33-.667.67-1.333,1-2l4-1v-1l3-1c0.33-.667.67-1.333,1-2h2l3-4h2l6-7c0.67-.333,1.33-0.667,2-1v-2c1.33-1,2.67-2,4-3v-2c0.67-.333,1.33-0.667,2-1v-2c0.67-.333,1.33-0.667,2-1,0.33-1.333.67-2.667,1-4,0.67-.333,1.33-0.667,2-1v-2h1c0.33-1.333.67-2.667,1-4h1v-3h1v-2h1v-3h1v-3h1v-3h1v-3h1c0.33-3.333.67-6.667,1-10h1V395h1V382h-1v-9h-1v-6h-1v-4h-1v-4h-1v-3h-1v-3h-1v-2h-1v-3h-1c-0.33-1.333-.67-2.667-1-4h-1c-0.33-1.333-.67-2.667-1-4a95.925,95.925,0,0,0-44-38h-3v-1h-3v-1h-4v-1h-4v-1h-6v-1h-24Zm453,1v1h-6l-18,6c-21.03,10.9-35.42,25.7-45,48q-2.505,9-5,18v7c-2.29,8.146-1.14,22.935,1,30v5h1v4h1v3h1v3h1v3h1v3h1c0.33,1.333.67,2.667,1,4h1v2h1v2h1v2h1v2h1v2c0.67,0.333,1.33.667,2,1v2c0.67,0.333,1.33.667,2,1v2c1.33,1,2.67,2,4,3v2l6,5,3,4h2l3,4h2c0.33,0.667.67,1.333,1,2h2c0.33,0.667.67,1.333,1,2h2v1h2v1h2v1h2v1h2c9.43,5,20.39,8,35,8h12l18-4v-1h2v-1h3v-1l6-2v-1h2v-1l4-1c0.33-.667.67-1.333,1-2h2c0.33-.667.67-1.333,1-2l3-1,3-4h2c1.33-1.667,2.67-3.333,4-5,0.67-.333,1.33-0.667,2-1v-2c1.33-1,2.67-2,4-3v-2l3-2v-2c0.67-.333,1.33-0.667,2-1,0.33-1.333.67-2.667,1-4,0.67-.333,1.33-0.667,2-1v-2h1c0.33-1.333.67-2.667,1-4h1q3.495-11,7-22v-6c4.39-15.259.83-35.9-4-48v-3h-1v-2h-1v-3h-1c-0.67-2-1.33-4-2-6h-1c-0.33-1.333-.67-2.667-1-4-0.67-.333-1.33-0.667-2-1v-2c-0.67-.333-1.33-0.667-2-1v-2l-3-2c-9.45-13.315-22.09-22.214-38-29q-8.505-2-17-4h-26Zm1087,0c-2.47,2.087-7.25-.1-11,1v1h-5v1h-4v1h-4v1h-3v1h-3v1l-6,2v1h-2v1l-6,2c-0.33.667-.67,1.333-1,2h-2c-0.67,1-1.33,2-2,3h-2l-3,4h-2c-0.33.667-.67,1.333-1,2-1.33,1-2.67,2-4,3v2c-1.67,1.333-3.33,2.667-5,4v2l-3,2v2c-0.67.333-1.33,0.667-2,1-0.67,2-1.33,4-2,6h-1v2h-1c-0.67,2-1.33,4-2,6h-1v3h-1v2h-1v3h-1v4h-1v4h-1v5h-1v8h-1c-1.72,6.153.8,21.893,2,26,0.33,3.333.67,6.667,1,10h1q1.005,5,2,10h1v2h1v3h1c0.33,1.333.67,2.667,1,4h1c0.33,1.333.67,2.667,1,4,0.67,0.333,1.33.667,2,1,0.33,1.333.67,2.667,1,4,0.67,0.333,1.33.667,2,1v2l3,2v2c1.67,1.333,3.33,2.667,5,4v2h1c0.67,1,1.33,2,2,3h2c1.67,2,3.33,4,5,6h2c0.33,0.667.67,1.333,1,2l3,1v1h2c0.33,0.667.67,1.333,1,2l4,1v1l4,1v1h3v1h2v1l10,2v1h5c4.07,1.214,19.74,3.783,26,2v-1h7v-1h4v-1h4v-1h3v-1h3v-1h3v-1l4-1v-1h2v-1h2v-1h2v-1h2c0.33-.667.67-1.333,1-2h2c0.67-1,1.33-2,2-3h2l3-4h2c1.33-1.667,2.67-3.333,4-5,0.67-.333,1.33-0.667,2-1v-2c1.67-1.333,3.33-2.667,5-4v-2c0.67-.333,1.33-0.667,2-1v-2c0.67-.333,1.33-0.667,2-1v-2c0.67-.333,1.33-0.667,2-1,0.33-1.333.67-2.667,1-4h1c0.67-2,1.33-4,2-6h1q3.495-12,7-24v-8c3.13-11.186-.1-27.39-3-36v-4h-1c-0.33-2-.67-4-1-6h-1c-0.33-1.333-.67-2.667-1-4h-1v-3h-1v-2h-1v-2c-0.67-.333-1.33-0.667-2-1-0.33-1.333-.67-2.667-1-4h-1c-0.33-1-.67-2-1-3-0.67-.333-1.33-0.667-2-1v-2c-1.33-1-2.67-2-4-3C2644.77,310.609,2620.33,298.3,2589,298Z"/>
</svg>
